<svg xmlns:xlink="http://www.w3.org/1999/xlink" xmlns="http://www.w3.org/2000/svg" fill="none" viewBox="0 0 78 78" width="80"  height="80" ><path stroke="url(&quot;#cards-star_svg__a&quot;)" stroke-linecap="round" stroke-linejoin="round" stroke-width="4.875px" d="M9.74 39v-3.251a6.503 6.503 0 0 1 6.503-6.503h45.519a6.503 6.503 0 0 1 6.503 6.503v26.01a6.503 6.503 0 0 1-6.503 6.503H45.505" fill="none"></path><path stroke="url(&quot;#cards-star_svg__b&quot;)" stroke-linecap="round" stroke-linejoin="round" stroke-width="4.875px" d="M25.146 44.73a2.67 2.67 0 0 0-4.79 0l-1.952 3.956a2.66 2.66 0 0 1-2.01 1.459l-4.371.65a2.67 2.67 0 0 0-1.476 4.555l3.16 3.081c.63.612.917 1.497.765 2.363l-.744 4.347a2.667 2.667 0 0 0 3.871 2.813l3.904-2.052a2.66 2.66 0 0 1 2.502 0l3.9 2.052a2.667 2.667 0 0 0 3.872-2.813l-.744-4.347c-.15-.866.136-1.75.765-2.363l3.146-3.081a2.67 2.67 0 0 0-1.473-4.555l-4.368-.65a2.66 2.66 0 0 1-2.01-1.459z" clip-rule="evenodd" fill="none"></path><path stroke="url(&quot;#cards-star_svg__c&quot;)" stroke-linecap="round" stroke-linejoin="round" stroke-width="4.875px" d="M17.865 19.492h42.268" fill="none"></path><path stroke="url(&quot;#cards-star_svg__d&quot;)" stroke-linecap="round" stroke-linejoin="round" stroke-width="4.875px" d="M24.37 9.738h32.513" fill="none"></path><defs><linearGradient id="cards-star_svg__a" x1="68.265" x2="8.292" y1="29.246" y2="31.616" gradientUnits="userSpaceOnUse"><stop stop-color="#19B16A"></stop><stop offset="1" stop-color="#2B8C51"></stop></linearGradient><linearGradient id="cards-star_svg__b" x1="35.751" x2="9.075" y1="43.24" y2="43.97" gradientUnits="userSpaceOnUse"><stop stop-color="#19B16A"></stop><stop offset="1" stop-color="#2B8C51"></stop></linearGradient><linearGradient id="cards-star_svg__c" x1="60.133" x2="21.307" y1="17.866" y2="31.165" gradientUnits="userSpaceOnUse"><stop stop-color="#19B16A"></stop><stop offset="1" stop-color="#2B8C51"></stop></linearGradient><linearGradient id="cards-star_svg__d" x1="56.883" x2="25.679" y1="8.112" y2="16.334" gradientUnits="userSpaceOnUse"><stop stop-color="#19B16A"></stop><stop offset="1" stop-color="#2B8C51"></stop></linearGradient><linearGradient id="cards-star_svg__a" x1="68.265" x2="8.292" y1="29.246" y2="31.616" gradientUnits="userSpaceOnUse"><stop stop-color="#19B16A"></stop><stop offset="1" stop-color="#2B8C51"></stop></linearGradient><linearGradient id="cards-star_svg__b" x1="35.751" x2="9.075" y1="43.24" y2="43.97" gradientUnits="userSpaceOnUse"><stop stop-color="#19B16A"></stop><stop offset="1" stop-color="#2B8C51"></stop></linearGradient><linearGradient id="cards-star_svg__c" x1="60.133" x2="21.307" y1="17.866" y2="31.165" gradientUnits="userSpaceOnUse"><stop stop-color="#19B16A"></stop><stop offset="1" stop-color="#2B8C51"></stop></linearGradient><linearGradient id="cards-star_svg__d" x1="56.883" x2="25.679" y1="8.112" y2="16.334" gradientUnits="userSpaceOnUse"><stop stop-color="#19B16A"></stop><stop offset="1" stop-color="#2B8C51"></stop></linearGradient></defs></svg>