<svg xmlns:xlink="http://www.w3.org/1999/xlink" xmlns="http://www.w3.org/2000/svg" width="25" height="24" viewBox="0 0 25 24" fill="none">
<g clip-path="url(#clip0_6992_2926)">
<path d="M8.5 21H7.5C6.96957 21 6.46086 20.7893 6.08579 20.4142C5.71071 20.0391 5.5 19.5304 5.5 19V5C5.5 4.46957 5.71071 3.96086 6.08579 3.58579C6.46086 3.21071 6.96957 3 7.5 3H15.5C16.0304 3 16.5391 3.21071 16.9142 3.58579C17.2893 3.96086 17.5 4.46957 17.5 5V7" stroke="#00A75E" stroke-width="1.5" stroke-linecap="round" stroke-linejoin="round"/>
<path d="M13.4997 16L12.9147 15.414C12.7834 15.2827 12.6275 15.1785 12.4559 15.1074C12.2843 15.0363 12.1004 14.9997 11.9147 14.9997C11.7289 14.9997 11.545 15.0363 11.3735 15.1074C11.2019 15.1785 11.046 15.2827 10.9147 15.414C10.6833 15.6452 10.5392 15.9494 10.5069 16.2748C10.4746 16.6003 10.5562 16.9269 10.7377 17.199L12.6777 20.109C12.8603 20.383 13.1077 20.6077 13.398 20.7631C13.6882 20.9186 14.0124 20.9999 14.3417 21H18.1377C18.6251 20.9999 19.0956 20.8218 19.461 20.4991C19.8263 20.1765 20.0612 19.7316 20.1217 19.248L20.4837 16.351C20.5479 15.8376 20.4106 15.3192 20.1007 14.9049C19.7908 14.4906 19.3323 14.2124 18.8217 14.129L16.4997 13.751V11.5C16.4997 11.1022 16.3416 10.7206 16.0603 10.4393C15.779 10.158 15.3975 10 14.9997 10C14.6018 10 14.2203 10.158 13.939 10.4393C13.6577 10.7206 13.4997 11.1022 13.4997 11.5V16Z" stroke="#00A75E" stroke-width="1.5" stroke-linecap="round" stroke-linejoin="round"/>
<path d="M14 3V5C14 5.13261 13.9473 5.25979 13.8536 5.35355C13.7598 5.44732 13.6326 5.5 13.5 5.5H9.5C9.36739 5.5 9.24021 5.44732 9.14645 5.35355C9.05268 5.25979 9 5.13261 9 5V3" stroke="#00A75E" stroke-width="1.5" stroke-linecap="round" stroke-linejoin="round"/>
</g>
<defs>
<clipPath id="clip0_6992_2926">
<rect width="24" height="24" fill="white" transform="translate(0.5)"/>
</clipPath>
</defs>
</svg>