<svg xmlns:xlink="http://www.w3.org/1999/xlink" xmlns="http://www.w3.org/2000/svg" width="507" height="139" viewBox="0 0 507 139" fill="none">
<path d="M504.121 56.1759H393.575C387.603 56.1759 382.754 51.3264 382.754 45.3541V32.2703C382.754 30.708 381.484 29.4387 379.922 29.4387H378.848H355.626C354.064 29.4387 352.794 30.708 352.794 32.2703V45.4029C352.794 51.359 347.961 56.1922 342.005 56.1922H335.398C329.442 56.1922 324.609 51.359 324.609 45.4029V32.2703C324.609 30.708 323.339 29.4387 321.777 29.4387H297.888C296.326 29.4387 295.056 30.708 295.056 32.2703V45.3541C295.056 51.3264 290.207 56.1759 284.235 56.1759H188.026C186.448 56.1759 185.162 57.4615 185.162 59.04V70.7731C185.162 78.682 191.574 85.0774 199.466 85.0774H280.947C292.078 85.0774 302.2 80.8138 309.833 73.8651C317.465 80.7976 327.571 85.0774 338.702 85.0774C349.93 85.0774 360.134 80.7325 367.782 73.6861C375.447 80.7325 385.634 85.0774 396.879 85.0774H492.697C500.606 85.0774 507.001 78.6657 507.001 70.7731V59.04C507.001 57.4615 505.715 56.1759 504.137 56.1759H504.121Z" fill="#000"/>
<path d="M364.819 95.0854H325.942C324.835 95.0854 323.94 95.9804 323.94 97.087V114.581C323.94 115.687 324.835 116.583 325.942 116.583H353.623C360.979 116.583 366.951 110.61 366.951 103.255V97.2009C366.951 96.0292 365.991 95.0691 364.819 95.0691V95.0854Z" fill="#000"/>
<path d="M106.673 98.5354H67.0798C65.9732 98.5354 65.0781 99.4304 65.0781 100.537V117.152C65.0781 118.747 66.3637 120.033 67.9748 120.033H85.9243V135.964C85.9243 137.136 86.8682 138.08 88.0399 138.08H93.7518C101.677 138.08 108.089 131.652 108.089 123.743V99.9349C108.089 99.1538 107.454 98.5354 106.689 98.5354H106.673Z" fill="#000"/>
<path d="M262.72 97.0544H245.568C244.396 97.0544 243.452 97.9983 243.452 99.17V115.671C243.452 117.266 244.738 118.552 246.333 118.552H263.501C264.673 118.552 265.617 117.608 265.617 116.436V99.9511C265.617 98.3563 264.315 97.0544 262.72 97.0544Z" fill="#000"/>
<path d="M127.242 56.1758H2.88039C1.2856 56.1758 0 57.4614 0 59.0562V70.773C0 78.6819 6.41172 85.0773 14.3043 85.0773H127.242C128.853 85.0773 130.138 83.7755 130.138 82.1807V59.0887C130.138 57.4777 128.836 56.1921 127.242 56.1921V56.1758Z" fill="#000"/>
<path d="M169.132 0H146.007C144.412 0 143.11 1.30187 143.11 2.89666V82.1806C143.11 83.7754 144.412 85.0773 146.007 85.0773H157.691C165.6 85.0773 172.012 78.6656 172.012 70.7567V2.89666C172.012 1.30187 170.726 0 169.115 0H169.132Z" fill="#000"/>
</svg>