<svg xmlns:xlink="http://www.w3.org/1999/xlink" xmlns="http://www.w3.org/2000/svg" width="132" height="24" viewBox="0 0 132 24" fill="none">
  <mask id="mask0_13936_28045" style="mask-type: luminance" maskUnits="userSpaceOnUse" x="0" y="0" width="24" height="24">
    <path d="M24 0H0V24H24V0Z" fill="white"/>
  </mask>
  <g mask="url(#mask0_13936_28045)">
    <path fill-rule="evenodd" clip-rule="evenodd" d="M23.9342 8.19262C23.8198 7.49161 23.5178 6.83435 23.0598 6.29022C22.6019 5.74609 22.0051 5.33523 21.3324 5.10102L14.1087 2.48201L9.4589 0.79425L10.3813 6.07595C11.063 6.09051 11.7338 6.25025 12.3485 6.54441C12.9632 6.83859 13.5076 7.26043 13.9453 7.78161C15.7124 9.88038 15.3399 12.827 13.2779 14.5605L8.01455 18.9685C7.80863 19.1398 7.54311 19.223 7.27588 19.1999C7.00868 19.1768 6.76146 19.0494 6.58812 18.8454C6.44927 18.6637 6.3613 18.4486 6.33314 18.2219L3.9146 4.36833C3.8853 4.23531 3.88335 4.09777 3.90882 3.96398C3.93431 3.83019 3.98668 3.70291 4.06284 3.58985C4.139 3.47678 4.23735 3.38027 4.35194 3.30609C4.46652 3.23193 4.595 3.18166 4.72962 3.1583C4.86423 3.13497 5.00218 3.13902 5.13519 3.17027C5.26818 3.2015 5.39346 3.25923 5.50346 3.34003C5.61343 3.42081 5.70588 3.52294 5.77522 3.6403C5.84452 3.75766 5.8893 3.88779 5.90679 4.02283L8.05042 16.3058L11.983 13.0157C13.1923 12.005 13.4293 10.3132 12.3954 9.08414C11.9599 8.56889 11.3502 8.23043 10.6814 8.13273C10.0126 8.03505 9.33108 8.18491 8.76559 8.55401C8.37514 6.32086 7.98399 4.08771 7.5922 1.85456L5.43663 1.07223C4.77076 0.820448 4.049 0.752661 3.34764 0.87604C2.64629 0.999418 1.99142 1.30938 1.45225 1.77315C0.900778 2.22164 0.480903 2.81011 0.236875 3.47651C-0.00715276 4.14291 -0.0662952 4.86259 0.0656803 5.55971L1.39448 13.105L2.72924 20.6503C2.84332 21.3512 3.14532 22.0083 3.60332 22.5522C4.06132 23.096 4.65828 23.5064 5.33106 23.7399C5.99695 23.9917 6.71871 24.0595 7.42007 23.9361C8.1214 23.8127 8.77628 23.5028 9.31546 23.039L11.9212 20.8548L16.6607 16.9074L20.4678 13.7305L21.1013 13.2023L22.5496 11.9911C23.1026 11.5412 23.5232 10.9506 23.7669 10.282C24.0107 9.61329 24.0684 8.89137 23.9342 8.19262Z" fill="#00A75E"/>
    <path fill-rule="evenodd" clip-rule="evenodd" d="M7.26953 0C7.3791 0.633408 7.4807 1.22115 7.59228 1.85455L7.26953 0Z" fill="#00A75E"/>
  </g>
  <g clip-path="url(#clip0_13936_28045)">
    <path d="M37.2284 21.7824C41.3683 21.7824 42.893 20.6962 42.893 18.0867V15.2614C42.893 13.3689 41.9028 12.1365 40.496 11.8493C41.1878 11.5086 41.5864 10.6257 41.5864 9.60903V5.69571C41.5864 3.52145 40.2797 2 38.3188 2H32V17.8691C32 20.6944 33.0886 21.7824 37.2284 21.7824ZM40.9321 18.0867C40.9321 19.6081 40.496 20.0433 37.2284 20.0433C34.397 20.0433 33.9609 19.6081 33.9609 17.8691V13.303H39.1893C40.2779 13.303 40.9321 13.9558 40.9321 15.2596V18.0849V18.0867ZM37.8827 3.73905C38.9713 3.73905 39.6255 4.39187 39.6255 5.69571V9.60903C39.6255 10.9129 38.9713 11.5657 37.8827 11.5657H33.9609V3.69625L37.8827 3.73905ZM126.772 22C128.514 22 130.257 21.9126 132 21.7824V20.0433C129.821 20.2181 128.296 20.261 126.772 20.261C125.247 20.261 124.375 19.3905 124.375 17.8691V16.7828H131.346V6.99956H126.117C123.938 6.99956 122.414 8.521 122.414 10.9129V17.8691C122.414 20.261 123.938 22 126.772 22ZM126.335 8.73861H129.385V15.0438H124.375V10.9129C124.375 9.39142 125.029 8.73861 126.335 8.73861ZM60.7591 21.5648H58.7982V6.99956H64.2447C66.4237 6.99956 67.9484 8.3034 67.9484 10.9129V21.5648H65.9876V10.9129C65.9876 9.39142 65.3333 8.73861 64.0267 8.73861H60.7591V21.5648ZM49.4299 21.7824C50.6061 21.7824 52.1362 21.4292 53.543 20.8834L53.7003 22L55.5307 21.7824C55.4431 20.6962 55.3555 19.6081 55.3126 18.7395L54.8764 10.7399C54.746 8.30518 53.3517 7.00134 51.1727 7.00134H46.1624V18.0885C46.1624 20.2627 47.469 21.7842 49.4299 21.7842V21.7824ZM48.1233 8.73861H50.9547C52.2613 8.73861 52.828 9.39142 52.9156 10.6953L53.3696 19.3299C52.2899 19.7062 50.8242 20.0433 49.8661 20.0433C48.7775 20.0433 48.1233 19.3905 48.1233 18.0867V8.73861ZM73.6988 3.95666H71.5646V2H73.6988V3.95666ZM79.2758 21.5666H77.315V6.99956H82.3253C83.6445 6.99956 84.6366 7.65059 85.1639 8.67083C85.7341 7.65059 86.8888 6.99956 88.208 6.99956H89.0803C91.2593 6.99956 92.784 8.3034 92.784 10.9129V21.5648H90.8231V10.9129C90.8231 9.39142 90.1689 8.73861 88.8622 8.73861H87.9899C86.9013 8.73861 86.029 9.39142 86.029 10.9129V21.5648H84.0681V10.9129C84.0681 9.39142 83.4139 8.73861 82.1073 8.73861H79.2758V21.5648V21.5666ZM112.609 21.7842C113.78 21.7842 115.301 21.4346 116.701 20.8924L116.878 22.0018L118.708 21.7842C118.578 20.6979 118.49 19.6099 118.49 18.7413V2H116.529V6.99956H113.044C110.865 6.99956 109.34 8.521 109.34 10.9129V18.0867C109.34 20.261 110.646 21.7824 112.607 21.7824L112.609 21.7842ZM111.303 10.9147C111.303 9.39321 111.957 8.74039 113.263 8.74039H116.531V19.337C115.453 19.7116 113.998 20.0451 113.045 20.0451C111.957 20.0451 111.303 19.3923 111.303 18.0885V10.9147ZM73.6113 21.5666H71.6504V6.99956H73.6113V21.5648V21.5666ZM105.856 18.0885V10.9147C105.856 8.52279 104.331 7.00134 102.152 7.00134H100.191C98.0124 7.00134 96.4877 8.52279 96.4877 10.9147V18.0885C96.4877 20.6979 97.882 21.7842 101.15 21.7842C104.417 21.7842 105.856 20.6979 105.856 18.0885ZM98.4486 18.0885V10.9147C98.4486 9.39321 99.1028 8.74039 100.409 8.74039H101.934C103.241 8.74039 103.895 9.34861 103.895 10.9147V18.0885C103.895 19.6099 103.328 20.0451 101.15 20.0451C98.9705 20.0451 98.4486 19.6099 98.4486 18.0885Z" fill="#101010"/>
  </g>
  <defs>
    <clipPath id="clip0_13936_28045">
      <rect width="100" height="20" fill="white" transform="translate(32 2)"/>
    </clipPath>
  </defs>
</svg>